<svg width="21" height="21" viewBox="0 0 21 21" fill="none" xmlns="http://www.w3.org/2000/svg">
<g clip-path="url(#clip0_1871_233)">
<path d="M10.5 0.083374C4.75001 0.083374 0.0833435 4.75004 0.0833435 10.5C0.0833435 16.25 4.75001 20.9167 10.5 20.9167C16.25 20.9167 20.9167 16.25 20.9167 10.5C20.9167 4.75004 16.25 0.083374 10.5 0.083374ZM18.2708 7.50004L15.375 8.69796C14.8438 7.28129 13.7292 6.15629 12.3021 5.63546L13.5 2.73962C15.6875 3.57296 17.4271 5.31254 18.2708 7.50004ZM10.5 13.625C8.77084 13.625 7.37501 12.2292 7.37501 10.5C7.37501 8.77087 8.77084 7.37504 10.5 7.37504C12.2292 7.37504 13.625 8.77087 13.625 10.5C13.625 12.2292 12.2292 13.625 10.5 13.625ZM7.51043 2.72921L8.72918 5.62504C7.29168 6.14587 6.15626 7.28129 5.62501 8.71879L2.72918 7.51046C3.57293 5.31254 5.31251 3.57296 7.51043 2.72921ZM2.72918 13.4896L5.62501 12.2917C6.15626 13.7292 7.28126 14.8542 8.71876 15.375L7.50001 18.2709C5.31251 17.4271 3.57293 15.6875 2.72918 13.4896ZM13.5 18.2709L12.3021 15.375C13.7292 14.8438 14.8542 13.7188 15.375 12.2813L18.2708 13.5C17.4271 15.6875 15.6875 17.4271 13.5 18.2709Z" fill="#FF9926"/>
</g>
<defs>
<clipPath id="clip0_1871_233">
<rect width="21" height="21" fill="white"/>
</clipPath>
</defs>
</svg>
